<svg width="100" height="100" viewBox="0 0 100 100" fill="none" xmlns="http://www.w3.org/2000/svg">
<path d="M9.70969 79.8985C5.45104 73.7661 3.40692 66.4412 3.40692 58.946C3.40692 38.3341 20.1008 21.4698 40.883 21.4698C48.2079 21.4698 55.1921 23.514 61.1542 27.432C62.0059 27.943 63.028 27.7726 63.539 26.9209C64.0501 26.0692 63.8797 25.0471 63.028 24.5361C56.3845 20.2774 48.7189 17.8926 40.883 17.8926C18.3974 17.8926 0 36.1196 0 58.7756C0 66.9522 2.38485 74.7881 6.9842 81.602C7.32489 82.113 7.8359 82.2833 8.34694 82.2833C8.68763 82.2833 9.02834 82.113 9.36903 81.9427C10.0504 81.7723 10.2207 80.7502 9.70969 79.8985Z" fill="#231F20"/>
<path d="M72.566 36.1205C71.7143 36.6315 71.5439 37.6536 72.0549 38.5053C76.1432 44.6378 78.1874 51.6219 78.1874 59.1172C78.1874 79.729 61.4935 96.5933 40.7113 96.5933C29.9795 96.5933 19.7587 91.994 12.6042 83.8174C11.9228 83.136 10.9007 82.9656 10.2194 83.647C9.53797 84.3284 9.36761 85.3504 10.049 86.0318C17.8849 94.8898 28.9574 100 40.7113 100C63.1969 100 81.5943 81.7732 81.5943 59.1172C81.5943 51.1109 79.2095 43.4453 74.9508 36.6315C74.2694 35.7798 73.2474 35.6094 72.566 36.1205Z" fill="#231F20"/>
<path d="M53.1486 39.6987C53.6597 38.847 53.319 37.8249 52.4673 37.3139C48.89 35.4401 44.8017 34.418 40.7134 34.418C27.2561 34.418 16.1836 45.4905 16.1836 58.9478C16.1836 72.4051 27.2561 83.4776 40.7134 83.4776C54.1707 83.4776 65.2432 72.4051 65.2432 58.9478C65.2432 54.6891 64.0508 50.4305 62.0067 46.6829C61.4956 45.8312 60.4735 45.6608 59.6218 46.0015C58.7701 46.5125 58.5998 47.5346 58.9404 48.3863C60.8142 51.6229 61.6659 55.2002 61.6659 58.9478C61.6659 70.5313 52.1266 80.0707 40.543 80.0707C28.9595 80.0707 19.4202 70.5313 19.4202 58.9478C19.4202 47.3643 28.9595 37.8249 40.543 37.8249C44.1203 37.8249 47.5272 38.6766 50.5934 40.3801C51.6155 40.8911 52.6376 40.5504 53.1486 39.6987Z" fill="#231F20"/>
<path d="M40.7147 52.985C41.7368 52.985 42.4182 52.3037 42.4182 51.2816C42.4182 50.2595 41.7368 49.5781 40.7147 49.5781C35.6044 49.5781 31.3457 53.8368 31.3457 58.9472C31.3457 64.0575 35.6044 68.3162 40.7147 68.3162C45.8251 68.3162 50.0838 64.0575 50.0838 58.9472C50.0838 57.9251 49.4024 57.2437 48.3803 57.2437C47.3582 57.2437 46.6768 57.9251 46.6768 58.9472C46.6768 62.1837 43.9513 64.9093 40.7147 64.9093C37.4782 64.9093 34.7526 62.1837 34.7526 58.9472C34.7526 55.7106 37.4782 52.985 40.7147 52.985Z" fill="#231F20"/>
<path d="M99.8214 15.5084C99.4807 14.827 98.9696 14.4863 98.2882 14.4863H85.5123V1.71037C85.5123 1.02898 85.1716 0.347596 84.4902 0.17725C83.8088 -0.163442 83.1274 0.00689843 82.6164 0.517936L71.5439 11.2497C71.2032 11.5904 71.0329 12.1015 71.0329 12.4422V26.7512L39.5189 58.0949C38.8375 58.7763 38.8375 59.7983 39.5189 60.4797C39.8595 60.8204 40.3706 60.9908 40.7113 60.9908C41.052 60.9908 41.563 60.8204 41.9037 60.4797L73.4177 28.9657H87.5564C88.0675 28.9657 88.4082 28.7954 88.7489 28.4547L99.4807 17.3822C99.9917 16.8712 100.162 16.0194 99.8214 15.5084ZM81.935 5.45797V15.338L76.6543 20.6188L74.2695 23.0036V12.9532L81.935 5.45797ZM86.8751 25.5588H76.8247L82.9571 19.4264L83.1274 19.256L84.4902 17.8932H94.3703L86.8751 25.5588Z" fill="#231F20"/>
</svg>
