<svg width="103" height="77" viewBox="0 0 103 77" fill="none" xmlns="http://www.w3.org/2000/svg">
<path fill-rule="evenodd" clip-rule="evenodd" d="M81.1953 49.1668C89.6751 43.1879 96.1356 36.2403 99.3656 32.4497C99.8456 31.8864 99.8456 31.1136 99.3656 30.5503C96.1356 26.7597 89.6751 19.8121 81.1953 13.8332C72.6876 7.83459 62.4156 3 51.4995 3C40.5834 3 30.3115 7.83459 21.8037 13.8332C13.3239 19.8121 6.86344 26.7597 3.63344 30.5503C3.15344 31.1136 3.15344 31.8864 3.63345 32.4497C6.86345 36.2403 13.3239 43.1879 21.8037 49.1668C30.3115 55.1654 40.5834 60 51.4995 60C58.5308 60 65.2948 57.9942 71.4922 54.9635L66.0517 50.1888C65.8765 50.035 65.7733 49.858 65.7275 49.6667C61.7377 52.9965 56.6026 55 50.9995 55C38.297 55 27.9995 44.7025 27.9995 32C27.9995 19.2975 38.297 9 50.9995 9C63.7021 9 73.9995 19.2975 73.9995 32C73.9995 37.1559 72.303 41.9155 69.4378 45.7512C69.7788 45.6975 70.1016 45.7601 70.3796 46.0042L77.0776 51.8823C78.4904 51.015 79.8644 50.1052 81.1953 49.1668ZM79.4333 53.9498C89.9173 47.3387 97.9026 38.792 101.649 34.3955C103.084 32.711 103.084 30.289 101.649 28.6045C95.0117 20.8154 75.0695 0 51.4995 0C27.9295 0 7.98732 20.8154 1.35002 28.6045C-0.08542 30.289 -0.0854183 32.711 1.35002 34.3955C7.98733 42.1847 27.9295 63 51.4995 63C59.5225 63 67.1252 60.5882 73.9259 57.0993L95.4134 75.957C96.6587 77.0499 98.5541 76.9264 99.647 75.6811C100.74 74.4358 100.616 72.5403 99.3711 71.4474L79.4333 53.9498ZM66.9995 32C66.9995 40.8366 59.8361 48 50.9995 48C42.163 48 34.9995 40.8366 34.9995 32C34.9995 23.1634 42.163 16 50.9995 16C59.8361 16 66.9995 23.1634 66.9995 32ZM50.9995 50C60.9406 50 68.9995 41.9411 68.9995 32C68.9995 22.0589 60.9406 14 50.9995 14C41.0584 14 32.9995 22.0589 32.9995 32C32.9995 41.9411 41.0584 50 50.9995 50Z" fill="#231F20"/>
</svg>
